<svg 
 xmlns="http://www.w3.org/2000/svg"
 xmlns:xlink="http://www.w3.org/1999/xlink"
 width="30px" height="30px">
<path fill-rule="evenodd"  fill="rgb(102, 178, 46)"
 d="M18.469,14.910 L29.491,25.882 C30.137,26.525 30.137,27.569 29.491,28.212 L28.491,29.207 C27.845,29.850 26.797,29.850 26.150,29.207 L15.128,18.236 L3.815,29.497 C3.170,30.139 2.125,30.139 1.480,29.497 L0.482,28.504 C-0.163,27.862 -0.163,26.821 0.482,26.179 L11.796,14.918 L0.621,3.795 C-0.025,3.152 -0.025,2.108 0.621,1.465 L1.621,0.470 C2.267,-0.174 3.315,-0.174 3.962,0.470 L15.136,11.593 L25.952,0.826 C26.597,0.184 27.643,0.184 28.288,0.826 L29.285,1.819 C29.930,2.461 29.930,3.501 29.285,4.144 L18.469,14.910 Z"/>
</svg>