<?xml version="1.0" encoding="utf-8"?>
<!-- Generator: Adobe Illustrator 24.0.2, SVG Export Plug-In . SVG Version: 6.00 Build 0)  -->
<svg version="1.1" id="Слой_1" xmlns="http://www.w3.org/2000/svg" xmlns:xlink="http://www.w3.org/1999/xlink" x="0px" y="0px"
	 viewBox="0 0 841.89 595.28" style="enable-background:new 0 0 841.89 595.28;" xml:space="preserve">
<style type="text/css">
	.st0{fill:#010202;}
	.st1{fill:url(#SVGID_1_);}
	.st2{fill:url(#SVGID_2_);}
	.st3{fill:url(#SVGID_3_);}
	.st4{fill:url(#SVGID_4_);}
	.st5{fill:url(#SVGID_5_);}
	.st6{fill:url(#SVGID_6_);}
	.st7{fill:url(#SVGID_7_);}
	.st8{fill:url(#SVGID_8_);}
	.st9{fill:url(#SVGID_9_);}
	.st10{fill:url(#SVGID_10_);}
	.st11{fill:url(#SVGID_11_);}
	.st12{fill:url(#SVGID_12_);}
	.st13{fill:url(#SVGID_13_);}
	.st14{font-family:'Times-Bold';}
	.st15{font-size:243.3198px;}
	.st16{fill:#FFFFFF;}
	.st17{fill:url(#SVGID_14_);}
	.st18{fill:url(#SVGID_15_);}
	.st19{fill:url(#SVGID_16_);}
	.st20{fill:url(#SVGID_17_);}
	.st21{fill:url(#SVGID_18_);}
	.st22{fill:url(#SVGID_19_);}
	.st23{fill:url(#SVGID_20_);}
	.st24{fill:url(#SVGID_21_);}
	.st25{fill:url(#SVGID_22_);}
	.st26{fill:url(#SVGID_23_);}
	.st27{fill:url(#SVGID_24_);}
	.st28{fill:url(#SVGID_25_);}
	.st29{fill:url(#SVGID_26_);}
	.st30{fill:url(#SVGID_27_);}
	.st31{fill:#FFFFFF;stroke:#65B32E;stroke-width:2;stroke-miterlimit:10;}
	.st32{fill:#65B32E;}
</style>
<linearGradient id="SVGID_1_" gradientUnits="userSpaceOnUse" x1="264.0009" y1="278.0482" x2="276.423" y2="128.1157">
	<stop  offset="0" style="stop-color:#FFFFFF"/>
	<stop  offset="0.0593" style="stop-color:#F5F9F0"/>
	<stop  offset="0.262" style="stop-color:#D1E4B9"/>
	<stop  offset="0.4536" style="stop-color:#B1D287"/>
	<stop  offset="0.6285" style="stop-color:#95C45E"/>
	<stop  offset="0.7834" style="stop-color:#7DBB43"/>
	<stop  offset="0.9125" style="stop-color:#6DB534"/>
	<stop  offset="1" style="stop-color:#67B32E"/>
</linearGradient>
<path class="st1" d="M260.44,273.52L260.44,273.52c-9.93-0.8-17.45-9.81-17.14-20.52l5.39-181.32c0.34-11.6,9.7-20.61,20.46-19.7
	l27.03,2.29c11.08,0.94,18.86,11.98,16.73,23.73l-32.42,179.03C278.65,267.18,270,274.29,260.44,273.52z"/>
<linearGradient id="SVGID_2_" gradientUnits="userSpaceOnUse" x1="307.4258" y1="137.8571" x2="467.2953" y2="137.8571">
	<stop  offset="0" style="stop-color:#FFFFFF"/>
	<stop  offset="0.0593" style="stop-color:#F5F9F0"/>
	<stop  offset="0.262" style="stop-color:#D1E4B9"/>
	<stop  offset="0.4536" style="stop-color:#B1D287"/>
	<stop  offset="0.6285" style="stop-color:#95C45E"/>
	<stop  offset="0.7834" style="stop-color:#7DBB43"/>
	<stop  offset="0.9125" style="stop-color:#6DB534"/>
	<stop  offset="1" style="stop-color:#67B32E"/>
</linearGradient>
<path class="st2" d="M313.55,243.47L313.55,243.47c-6.2-4.19-7.98-12.54-4.02-18.89l117.1-188.15c4.17-6.71,13.08-8.6,19.63-4.18
	l14.92,10.09c6.57,4.44,8.1,13.46,3.38,19.83L332.54,240.22C328.1,246.21,319.73,247.64,313.55,243.47z"/>
<linearGradient id="SVGID_3_" gradientUnits="userSpaceOnUse" x1="382.8953" y1="144.9486" x2="581.2547" y2="144.9486">
	<stop  offset="0" style="stop-color:#FFFFFF"/>
	<stop  offset="0.0593" style="stop-color:#F5F9F0"/>
	<stop  offset="0.262" style="stop-color:#D1E4B9"/>
	<stop  offset="0.4536" style="stop-color:#B1D287"/>
	<stop  offset="0.6285" style="stop-color:#95C45E"/>
	<stop  offset="0.7834" style="stop-color:#7DBB43"/>
	<stop  offset="0.9125" style="stop-color:#6DB534"/>
	<stop  offset="1" style="stop-color:#67B32E"/>
</linearGradient>
<path class="st3" d="M385.51,227.25L385.51,227.25c-3.84-4.55-3.41-11.32,0.99-15.33l164.73-150.3c4.64-4.23,11.86-3.76,15.92,1.03
	l11.49,13.58c4.07,4.81,3.31,12.04-1.67,15.9L400.75,228.85C396.07,232.48,389.35,231.78,385.51,227.25z"/>
<linearGradient id="SVGID_4_" gradientUnits="userSpaceOnUse" x1="428.7958" y1="192.2341" x2="624.2323" y2="192.2341">
	<stop  offset="0" style="stop-color:#FFFFFF"/>
	<stop  offset="0.0593" style="stop-color:#F5F9F0"/>
	<stop  offset="0.262" style="stop-color:#D1E4B9"/>
	<stop  offset="0.4536" style="stop-color:#B1D287"/>
	<stop  offset="0.6285" style="stop-color:#95C45E"/>
	<stop  offset="0.7834" style="stop-color:#7DBB43"/>
	<stop  offset="0.9125" style="stop-color:#6DB534"/>
	<stop  offset="1" style="stop-color:#67B32E"/>
</linearGradient>
<path class="st4" d="M429.19,229.13L429.19,229.13c-1.22-3.38,0.49-7.12,3.84-8.42l179.18-69.3c3.47-1.34,7.36,0.43,8.62,3.93
	l3.01,8.35c1.26,3.5-0.6,7.34-4.13,8.52l-182.19,60.95C434.11,234.31,430.41,232.52,429.19,229.13z"/>
<linearGradient id="SVGID_5_" gradientUnits="userSpaceOnUse" x1="253.92" y1="337.2971" x2="89.6627" y2="240.6203">
	<stop  offset="1.880787e-03" style="stop-color:#FFFFFF"/>
	<stop  offset="0.0611" style="stop-color:#F5F9F0"/>
	<stop  offset="0.2634" style="stop-color:#D1E4B9"/>
	<stop  offset="0.4546" style="stop-color:#B1D287"/>
	<stop  offset="0.6292" style="stop-color:#95C45E"/>
	<stop  offset="0.7838" style="stop-color:#7DBB43"/>
	<stop  offset="0.9126" style="stop-color:#6DB534"/>
	<stop  offset="1" style="stop-color:#67B32E"/>
</linearGradient>
<path class="st5" d="M251.82,328.64L251.82,328.64c-5.32,10.11-17.49,14.49-28.04,10.09L91.57,283.54
	c-12.96-5.41-17.64-21.38-9.65-32.93l16.15-23.34c6.89-9.95,20.5-12.5,30.52-5.72l116.06,78.52
	C253.97,306.38,257.06,318.68,251.82,328.64z"/>
<path class="st0" d="M233.48,372.17L233.48,372.17c1.23,7.04-3.17,13.87-10.14,15.74L69.66,429.03
	c-7.91,2.12-15.92-2.94-17.32-10.93l-3.54-20.23c-1.35-7.73,4.07-15.05,11.92-16.09l157.22-20.88
	C225.35,359.9,232.2,364.88,233.48,372.17z"/>
<path class="st0" d="M277,390.34L277,390.34c2.71,4.95,0.87,11.25-4.17,14.29l-123.81,74.56c-5.36,3.23-12.23,1.53-15.11-3.74
	l-5.21-9.52c-2.86-5.23-0.63-11.9,4.92-14.7l129.02-65.04C267.92,383.53,274.27,385.36,277,390.34z"/>
<path class="st0" d="M324.51,397.96L324.51,397.96c2.92,3.35,2.65,8.42-0.61,11.44l-81.23,75.24c-3.41,3.15-8.74,2.87-11.79-0.63
	l-4.44-5.1c-3.05-3.5-2.6-8.83,0.99-11.77L313.1,397C316.54,394.18,321.59,394.61,324.51,397.96z"/>
<g>
	<text transform="matrix(1 0 0 1 363.1693 441.8607)" class="st0 st14 st15">GeS</text>
</g>
</svg>
