<?xml version="1.0" encoding="utf-8"?>
<!-- Generator: Adobe Illustrator 24.0.2, SVG Export Plug-In . SVG Version: 6.00 Build 0)  -->
<svg version="1.1" id="Capa_1" xmlns="http://www.w3.org/2000/svg" xmlns:xlink="http://www.w3.org/1999/xlink" x="0px" y="0px"
	 viewBox="0 0 512 512" style="enable-background:new 0 0 512 512;" xml:space="preserve">
<path d="M432.26,104.41l-102.7-20.62c-0.1-0.02-0.21-0.03-0.31-0.03H179.1c-8.92,0-27.81,9.7-25.01,31.94
	c0.3,2.34,0.94,4.78,1.94,7.16v0c2.2,12.5,20.84,17.88,25.46,17.61c4.61-0.27,38.01-1.59,45.84,1.63
	c7.83,3.21,22.51,14.5,26.04,26.58c3.52,12.08,2.71,29.57,0,40.69c-2.71,11.12-8.95,13.56-8.95,13.56h-40.6c0,0-1.45,20.07,0,30.02
	c0.9,6.19,12.95,9.88,14.01,14.56c2.23,9.92,72.1,244.5,72.97,244.5H475.1c19.06,0,34.52-15.45,34.52-34.52V198.84
	C509.62,153.12,477.08,113.41,432.26,104.41z M426.14,335.71H376c-0.87,0-1.57-0.7-1.57-1.57V154.19c0-0.97,0.88-1.71,1.84-1.55
	l41.65,7.09c20.65,3.51,35.76,21.41,35.76,42.36v106.1h0C453.66,323.36,441.32,335.71,426.14,335.71z"/>
<path d="M199.9,54.94h61.87c7.98,0,14.45-6.47,14.45-14.45v-7.29c0-7.98-6.47-14.45-14.45-14.45H199.9
	c-7.98,0-14.45,6.47-14.45,14.45v7.29C185.45,48.48,191.92,54.94,199.9,54.94z"/>
<path d="M6.37,159v47.66c0,6.15,6.47,11.13,14.45,11.13h7.29c7.98,0,14.45-4.98,14.45-11.13V159c0-6.15-6.47-11.13-14.45-11.13
	h-7.29C12.84,147.87,6.37,152.85,6.37,159z"/>
<path d="M45.91,263.71c6.01,5.66,11.57,1.52,15.95-3.42c7.29-8.21,14.32-16.65,21.45-24.99c5.14,6.85,8.38,11.86,11.73,11.94
	c28.39,0.63,56.79,0.36,86.27,0.36c0-10.87,0-20.21,0-30.9c0,0,2.37,0.03,5.94,0.05c9.51,0.14,18.54,0.47,27.4-0.18
	c0.09,0,0.19-0.01,0.28-0.01c9.4-0.34,14.75,1.73,16.88-16.52c0.64-4.16,0.92-8.06,0.83-11.74c0-0.13,0.01-0.24,0.02-0.37
	c1.17-31.19-26.71-40.06-26.71-40.06c-8.3,0-16.61,0-24.91,0c-39.82,0-79.65,0-119.47,0c-0.1,19.04-0.76,38.1,0.02,57.1
	c0.27,6.54,4.13,12.93,6.35,19.39c1.56,0.27,3.11,0.53,4.67,0.8c-7.92,7.22-15.9,14.39-23.75,21.69
	C43.68,251.69,39.27,257.45,45.91,263.71z"/>
<path d="M206.41,304.21c-12.08-40.48-12.06-40.48-58.09-36.3c0,53.3,0.01,105.63-0.02,157.95c0,5.08,1.06,10.75-0.84,15.07
	c-1.72,3.92-6.74,8.67-10.43,8.77c-3.55,0.1-8.7-4.62-10.48-8.46c-1.99-4.28-1.22-9.95-1.22-15.01c-0.07-47.33-0.02-94.66-0.07-142
	c-0.01-5.39-0.48-10.77-0.79-17.4c-12.09,0-22.73,0.62-33.27-0.18c-9.96-0.76-13.92,3.09-16.71,12.68
	C56.84,339.8,38.34,400.02,20.32,460.38c-10.01,33.53,3.24,51.48,37.86,51.55c52.42,0.1,104.84,0.09,157.26,0
	c34.74-0.06,47.65-17.73,37.63-51.47C237.59,408.36,221.95,356.3,206.41,304.21z"/>
</svg>
