<?xml version="1.0" encoding="utf-8"?>
<!-- Generator: Adobe Illustrator 24.0.2, SVG Export Plug-In . SVG Version: 6.00 Build 0)  -->
<svg version="1.1" id="Слой_1" xmlns="http://www.w3.org/2000/svg" xmlns:xlink="http://www.w3.org/1999/xlink" x="0px" y="0px"
	 viewBox="0 0 749.5 466" style="enable-background:new 0 0 749.5 466;" xml:space="preserve">
<style type="text/css">
	.st0{fill:url(#SVGID_1_);}
	.st1{fill:url(#SVGID_2_);}
	.st2{fill:url(#SVGID_3_);}
	.st3{fill:url(#SVGID_4_);}
	.st4{fill:url(#SVGID_5_);}
	.st5{fill:url(#SVGID_6_);}
	.st6{fill:url(#SVGID_7_);}
	.st7{fill:url(#SVGID_8_);}
	.st8{fill:url(#SVGID_9_);}
	.st9{fill:url(#SVGID_10_);}
	.st10{fill:url(#SVGID_11_);}
	.st11{fill:url(#SVGID_12_);}
	.st12{fill:url(#SVGID_13_);}
	.st13{fill:url(#SVGID_14_);}
	.st14{fill:url(#SVGID_15_);}
	.st15{fill:url(#SVGID_16_);}
	.st16{fill:url(#SVGID_17_);}
	.st17{fill:url(#SVGID_18_);}
	.st18{fill:url(#SVGID_19_);}
	.st19{fill:url(#SVGID_20_);}
	.st20{fill:url(#SVGID_21_);}
	.st21{fill:url(#SVGID_22_);}
	.st22{fill:url(#SVGID_23_);}
	.st23{fill:url(#SVGID_24_);}
	.st24{fill:url(#SVGID_25_);}
	.st25{fill:url(#SVGID_26_);}
	.st26{fill:#FFFFFF;}
	.st27{fill:url(#SVGID_27_);}
	.st28{fill:url(#SVGID_28_);}
	.st29{fill:url(#SVGID_29_);}
	.st30{fill:url(#SVGID_30_);}
	.st31{fill:url(#SVGID_31_);}
	.st32{fill:url(#SVGID_32_);}
	.st33{fill:url(#SVGID_33_);}
	.st34{fill:url(#SVGID_34_);}
	.st35{fill:url(#SVGID_35_);}
	.st36{fill:url(#SVGID_36_);}
	.st37{fill:url(#SVGID_37_);}
	.st38{fill:url(#SVGID_38_);}
	.st39{fill:url(#SVGID_39_);}
	.st40{fill:url(#SVGID_40_);}
	.st41{fill:url(#SVGID_41_);}
	.st42{fill:url(#SVGID_42_);}
	.st43{fill:url(#SVGID_43_);}
	.st44{fill:url(#SVGID_44_);}
	.st45{fill:url(#SVGID_45_);}
	.st46{fill:url(#SVGID_46_);}
	.st47{fill:url(#SVGID_47_);}
	.st48{fill:url(#SVGID_48_);}
	.st49{fill:url(#SVGID_49_);}
	.st50{fill:url(#SVGID_50_);}
	.st51{fill:url(#SVGID_51_);}
	.st52{fill:url(#SVGID_52_);}
	.st53{fill:url(#SVGID_53_);}
	.st54{fill:url(#SVGID_54_);}
	.st55{fill:url(#SVGID_55_);}
	.st56{fill:url(#SVGID_56_);}
	.st57{fill:url(#SVGID_57_);}
	.st58{fill:url(#SVGID_58_);}
	.st59{fill:#FFFFFF;stroke:#65B22E;stroke-width:2;stroke-miterlimit:10;}
	.st60{fill:#65B22E;}
</style>
<g>
	<linearGradient id="SVGID_1_" gradientUnits="userSpaceOnUse" x1="219.6864" y1="253.1143" x2="232.355" y2="100.208">
		<stop  offset="0" style="stop-color:#FFFFFF"/>
		<stop  offset="0.1583" style="stop-color:#DDEED0"/>
		<stop  offset="0.3746" style="stop-color:#B3D997"/>
		<stop  offset="0.5747" style="stop-color:#92C86A"/>
		<stop  offset="0.752" style="stop-color:#7ABC49"/>
		<stop  offset="0.8998" style="stop-color:#6BB535"/>
		<stop  offset="1" style="stop-color:#66B22E"/>
	</linearGradient>
	<path class="st0" d="M216.1,248.5L216.1,248.5c-10.1-0.8-17.8-10-17.5-20.9l5.5-184.9c0.4-11.8,9.9-21,20.9-20.1l27.6,2.3
		c11.3,1,19.2,12.2,17.1,24.2l-33.1,182.6C234.6,242,225.8,249.3,216.1,248.5z"/>
	<linearGradient id="SVGID_2_" gradientUnits="userSpaceOnUse" x1="257.788" y1="229.1432" x2="386.7782" y2="45.5715">
		<stop  offset="0" style="stop-color:#FFFFFF"/>
		<stop  offset="0.1583" style="stop-color:#DDEED0"/>
		<stop  offset="0.3746" style="stop-color:#B3D997"/>
		<stop  offset="0.5747" style="stop-color:#92C86A"/>
		<stop  offset="0.752" style="stop-color:#7ABC49"/>
		<stop  offset="0.8998" style="stop-color:#6BB535"/>
		<stop  offset="1" style="stop-color:#66B22E"/>
	</linearGradient>
	<path class="st1" d="M270.2,217.8L270.2,217.8c-6.3-4.3-8.1-12.8-4.1-19.3L385.5,6.7c4.3-6.8,13.3-8.8,20-4.3l15.2,10.3
		c6.7,4.5,8.3,13.7,3.5,20.2L289.6,214.5C285.1,220.6,276.5,222.1,270.2,217.8z"/>
	<linearGradient id="SVGID_3_" gradientUnits="userSpaceOnUse" x1="330.1688" y1="204.1719" x2="495.6666" y2="71.9592">
		<stop  offset="0" style="stop-color:#FFFFFF"/>
		<stop  offset="0.1583" style="stop-color:#DDEED0"/>
		<stop  offset="0.3746" style="stop-color:#B3D997"/>
		<stop  offset="0.5747" style="stop-color:#92C86A"/>
		<stop  offset="0.752" style="stop-color:#7ABC49"/>
		<stop  offset="0.8998" style="stop-color:#6BB535"/>
		<stop  offset="1" style="stop-color:#66B22E"/>
	</linearGradient>
	<path class="st2" d="M343.6,201.3L343.6,201.3c-3.9-4.6-3.5-11.5,1-15.6l168-153.3c4.7-4.3,12.1-3.8,16.2,1l11.7,13.8
		c4.1,4.9,3.4,12.3-1.7,16.2L359.2,202.9C354.4,206.6,347.5,205.9,343.6,201.3z"/>
	<linearGradient id="SVGID_4_" gradientUnits="userSpaceOnUse" x1="355.5023" y1="204.1791" x2="576.7446" y2="138.706">
		<stop  offset="0" style="stop-color:#FFFFFF"/>
		<stop  offset="0.1583" style="stop-color:#DDEED0"/>
		<stop  offset="0.3746" style="stop-color:#B3D997"/>
		<stop  offset="0.5747" style="stop-color:#92C86A"/>
		<stop  offset="0.752" style="stop-color:#7ABC49"/>
		<stop  offset="0.8998" style="stop-color:#6BB535"/>
		<stop  offset="1" style="stop-color:#66B22E"/>
	</linearGradient>
	<path class="st3" d="M388.2,203.2L388.2,203.2c-1.2-3.5,0.5-7.3,3.9-8.6L574.8,124c3.5-1.4,7.5,0.4,8.8,4l3.1,8.5
		c1.3,3.6-0.6,7.5-4.2,8.7l-185.8,62.2C393.2,208.5,389.4,206.7,388.2,203.2z"/>
	<linearGradient id="SVGID_5_" gradientUnits="userSpaceOnUse" x1="209.4056" y1="313.5384" x2="41.8904" y2="214.9441">
		<stop  offset="1.880787e-03" style="stop-color:#FFFFFF"/>
		<stop  offset="0.1599" style="stop-color:#DDEED0"/>
		<stop  offset="0.3758" style="stop-color:#B3D997"/>
		<stop  offset="0.5755" style="stop-color:#92C86A"/>
		<stop  offset="0.7525" style="stop-color:#7ABC49"/>
		<stop  offset="0.9" style="stop-color:#6BB535"/>
		<stop  offset="1" style="stop-color:#66B22E"/>
	</linearGradient>
	<path class="st4" d="M207.3,304.7L207.3,304.7c-5.4,10.3-17.8,14.8-28.6,10.3L43.8,258.7c-13.2-5.5-18-21.8-9.8-33.6l16.5-23.8
		c7-10.1,20.9-12.8,31.1-5.8L200,275.6C209.5,282,212.6,294.6,207.3,304.7z"/>
	<linearGradient id="SVGID_6_" gradientUnits="userSpaceOnUse" x1="184.0991" y1="343.8802" x2="0.2856" y2="386.8505">
		<stop  offset="1.880787e-03" style="stop-color:#FFFFFF"/>
		<stop  offset="0.1599" style="stop-color:#DDEED0"/>
		<stop  offset="0.3758" style="stop-color:#B3D997"/>
		<stop  offset="0.5755" style="stop-color:#92C86A"/>
		<stop  offset="0.7525" style="stop-color:#7ABC49"/>
		<stop  offset="0.9" style="stop-color:#6BB535"/>
		<stop  offset="1" style="stop-color:#66B22E"/>
	</linearGradient>
	<path class="st5" d="M188.6,349.1L188.6,349.1c1.3,7.2-3.2,14.1-10.3,16.1L21.5,407.1c-8.1,2.2-16.2-3-17.7-11.1l-3.6-20.6
		c-1.4-7.9,4.1-15.3,12.2-16.4l160.3-21.3C180.3,336.6,187.3,341.7,188.6,349.1z"/>
	<linearGradient id="SVGID_7_" gradientUnits="userSpaceOnUse" x1="221.8324" y1="348.5874" x2="107.1052" y2="451.0057">
		<stop  offset="1.880787e-03" style="stop-color:#FFFFFF"/>
		<stop  offset="0.1599" style="stop-color:#DDEED0"/>
		<stop  offset="0.3758" style="stop-color:#B3D997"/>
		<stop  offset="0.5755" style="stop-color:#92C86A"/>
		<stop  offset="0.7525" style="stop-color:#7ABC49"/>
		<stop  offset="0.9" style="stop-color:#6BB535"/>
		<stop  offset="1" style="stop-color:#66B22E"/>
	</linearGradient>
	<path class="st6" d="M232.9,367.6L232.9,367.6c2.8,5.1,0.9,11.5-4.3,14.6l-126.3,76c-5.5,3.3-12.5,1.6-15.4-3.8l-5.3-9.7
		c-2.9-5.3-0.6-12.1,5-15l131.6-66.3C223.7,360.7,230.2,362.6,232.9,367.6z"/>
	<linearGradient id="SVGID_8_" gradientUnits="userSpaceOnUse" x1="285.5691" y1="387.8694" x2="196.4593" y2="441.7829">
		<stop  offset="1.880787e-03" style="stop-color:#FFFFFF"/>
		<stop  offset="0.1599" style="stop-color:#DDEED0"/>
		<stop  offset="0.3758" style="stop-color:#B3D997"/>
		<stop  offset="0.5755" style="stop-color:#92C86A"/>
		<stop  offset="0.7525" style="stop-color:#7ABC49"/>
		<stop  offset="0.9" style="stop-color:#6BB535"/>
		<stop  offset="1" style="stop-color:#66B22E"/>
	</linearGradient>
	<path class="st7" d="M281.4,375.4L281.4,375.4c3,3.4,2.7,8.6-0.6,11.7l-82.8,76.7c-3.5,3.2-8.9,2.9-12-0.6l-4.5-5.2
		c-3.1-3.6-2.7-9,1-12l87.4-71.5C273.3,371.6,278.4,372,281.4,375.4z"/>
	<g>
		<path d="M353.8,275.4c16.5-17.4,37.5-26.1,63.1-26.1c10.3,0,20.5,1.9,30.7,5.8c10.2,3.8,16.5,5.8,19,5.8c2.7,0,4.8-0.9,6.4-2.8
			c1.6-1.9,2.9-4.7,4-8.5h6.9v58h-6.3c-6-12.6-12.1-22.5-18.3-29.8c-11.6-13.4-24.8-20.1-39.5-20.1c-16,0-27.7,6.9-35,20.8
			c-7.4,13.9-11,33.4-11,58.6c0,20.7,3.4,39.1,10.2,55.3c6.8,16.2,20,24.3,39.6,24.3c10.6,0,17.7-2.2,21.3-6.7
			c2.1-2.5,3.2-6.3,3.2-11.4v-26.2c0-7.5-2.3-12.4-6.9-14.8c-3-1.5-9-2.3-18.2-2.4v-6.3H508v6.3c-8.6,0.3-14.2,2-17,5.1
			c-2.8,3.1-4.2,8.9-4.2,17.5v31.6c-5.5,3.4-14.4,6.8-26.7,10.2c-12.3,3.4-26,5.1-41.2,5.1c-27.5,0-49.6-8.7-66-26.1
			c-15.3-16.2-23-36.6-23-61.1C329.9,313.1,337.9,292.3,353.8,275.4z"/>
		<path d="M534.5,318.8c10.1-10.5,22.4-15.8,36.7-15.8c8.2,0,15.9,2.1,23,6.4c7.2,4.3,12.7,10.2,16.6,17.8
			c2.9,5.7,4.9,13.2,6.1,22.3c0.6,4.3,0.9,7.6,0.9,9.8h-63.4c0.6,9.9,2.2,18.5,4.9,25.8c4.9,13.7,13.4,20.5,25.6,20.5
			c5.8,0,11.3-1.8,16.5-5.5c3.2-2.2,7.1-5.9,11.8-11l5.7,3.5c-7.7,12.6-16.6,21.4-26.7,26.3c-6.5,3.2-14.1,4.7-22.6,4.7
			c-12.2,0-23.7-4.8-34.3-14.4c-10.7-9.6-16-25-16-46C519.3,344.2,524.4,329.4,534.5,318.8z M587.3,350.1
			c-0.2-14.6-1.3-24.8-3.4-30.7c-2.1-5.8-6.3-8.7-12.6-8.7c-6.5,0-10.9,3.4-13.3,10.1c-2.4,6.7-3.8,16.5-4.1,29.3H587.3z"/>
		<path d="M632.7,362.3h7.1c3.9,18.5,10.3,32,19.1,40.4c8.8,8.4,18.9,12.6,30.3,12.6c11.1,0,18.9-2.9,23.6-8.7
			c4.7-5.8,7-11.9,7-18.3c0-7.4-2.4-13.5-7.3-18.2c-3.2-3.1-9.7-7.1-19.6-12l-15.8-8c-15.7-7.9-26.8-15.8-33.2-23.5
			c-6.4-7.8-9.7-17.3-9.7-28.7c0-12.1,4.3-23.4,12.8-33.9c8.5-10.5,21.6-15.8,39.3-15.8c9,0,17.7,1.4,26,4.1
			c8.4,2.7,13.2,4.1,14.4,4.1c2.7,0,4.6-0.8,5.6-2.4c1-1.6,1.9-3.7,2.5-6.2h7.4v54h-6.9c-3.2-12.5-8.9-23.3-17.1-32.4
			c-8.2-9-18.1-13.6-29.8-13.6c-8.2,0-14.7,2.3-19.5,6.9c-4.8,4.6-7.2,10.1-7.2,16.7c0,7.8,2.2,13.7,6.7,17.6
			c4.4,4,14.2,9.8,29.5,17.5l18.3,9.2c8.2,4.1,14.7,8.7,19.5,13.7c9.1,9.4,13.6,20.7,13.6,34.1c0,12.5-4.9,24.3-14.6,35.4
			c-9.7,11.1-25.3,16.6-46.8,16.6c-4.9,0-9.9-0.5-15-1.4c-5-0.9-10-2.4-15-4.3l-4.8-1.8c-1.1-0.3-2.2-0.6-3.2-0.8
			c-1-0.2-1.9-0.3-2.6-0.3c-2.5,0-4.3,0.7-5.2,2.2c-1,1.5-1.8,3.6-2.5,6.4h-7.1V362.3z"/>
	</g>
</g>
</svg>
