<?xml version="1.0" encoding="utf-8"?>
<!-- Generator: Adobe Illustrator 24.0.2, SVG Export Plug-In . SVG Version: 6.00 Build 0)  -->
<svg version="1.1" id="Слой_1" xmlns="http://www.w3.org/2000/svg" xmlns:xlink="http://www.w3.org/1999/xlink" x="0px" y="0px"
	 viewBox="0 0 841.9 595.3" style="enable-background:new 0 0 841.9 595.3;" xml:space="preserve">
<style type="text/css">
	.st0{fill:url(#SVGID_1_);}
	.st1{fill:url(#SVGID_2_);}
	.st2{fill:url(#SVGID_3_);}
	.st3{fill:url(#SVGID_4_);}
	.st4{fill:url(#SVGID_5_);}
	.st5{fill:#010202;}
	.st6{enable-background:new    ;}
</style>
<linearGradient id="SVGID_1_" gradientUnits="userSpaceOnUse" x1="263.9998" y1="316.881" x2="276.4219" y2="466.8135" gradientTransform="matrix(1 0 0 -1 0 594.9291)">
	<stop  offset="0" style="stop-color:#FFFFFF"/>
	<stop  offset="5.930000e-02" style="stop-color:#F5F9F0"/>
	<stop  offset="0.262" style="stop-color:#D1E4B9"/>
	<stop  offset="0.4536" style="stop-color:#B1D287"/>
	<stop  offset="0.6285" style="stop-color:#95C45E"/>
	<stop  offset="0.7834" style="stop-color:#7DBB43"/>
	<stop  offset="0.9125" style="stop-color:#6DB534"/>
	<stop  offset="1" style="stop-color:#67B32E"/>
</linearGradient>
<path class="st0" d="M260.4,273.5L260.4,273.5c-9.9-0.8-17.4-9.8-17.1-20.5l5.4-181.3c0.3-11.6,9.7-20.6,20.5-19.7l27,2.3
	c11.1,0.9,18.9,12,16.7,23.7l-32.4,179C278.6,267.2,270,274.3,260.4,273.5z"/>
<linearGradient id="SVGID_2_" gradientUnits="userSpaceOnUse" x1="307.4233" y1="457.0716" x2="467.3024" y2="457.0716" gradientTransform="matrix(1 0 0 -1 0 594.9291)">
	<stop  offset="0" style="stop-color:#FFFFFF"/>
	<stop  offset="5.930000e-02" style="stop-color:#F5F9F0"/>
	<stop  offset="0.262" style="stop-color:#D1E4B9"/>
	<stop  offset="0.4536" style="stop-color:#B1D287"/>
	<stop  offset="0.6285" style="stop-color:#95C45E"/>
	<stop  offset="0.7834" style="stop-color:#7DBB43"/>
	<stop  offset="0.9125" style="stop-color:#6DB534"/>
	<stop  offset="1" style="stop-color:#67B32E"/>
</linearGradient>
<path class="st1" d="M313.5,243.5L313.5,243.5c-6.2-4.2-8-12.5-4-18.9L426.6,36.4c4.2-6.7,13.1-8.6,19.6-4.2l14.9,10.1
	c6.6,4.4,8.1,13.5,3.4,19.8l-132,178.1C328.1,246.2,319.7,247.6,313.5,243.5z"/>
<linearGradient id="SVGID_3_" gradientUnits="userSpaceOnUse" x1="382.8921" y1="449.9793" x2="581.2597" y2="449.9793" gradientTransform="matrix(1 0 0 -1 0 594.9291)">
	<stop  offset="0" style="stop-color:#FFFFFF"/>
	<stop  offset="5.930000e-02" style="stop-color:#F5F9F0"/>
	<stop  offset="0.262" style="stop-color:#D1E4B9"/>
	<stop  offset="0.4536" style="stop-color:#B1D287"/>
	<stop  offset="0.6285" style="stop-color:#95C45E"/>
	<stop  offset="0.7834" style="stop-color:#7DBB43"/>
	<stop  offset="0.9125" style="stop-color:#6DB534"/>
	<stop  offset="1" style="stop-color:#67B32E"/>
</linearGradient>
<path class="st2" d="M385.5,227.2L385.5,227.2c-3.8-4.6-3.4-11.3,1-15.3L551.2,61.6c4.6-4.2,11.9-3.8,15.9,1l11.5,13.6
	c4.1,4.8,3.3,12-1.7,15.9L400.8,228.9C396.1,232.5,389.4,231.8,385.5,227.2z"/>
<linearGradient id="SVGID_4_" gradientUnits="userSpaceOnUse" x1="428.7965" y1="402.694" x2="624.2345" y2="402.694" gradientTransform="matrix(1 0 0 -1 0 594.9291)">
	<stop  offset="0" style="stop-color:#FFFFFF"/>
	<stop  offset="5.930000e-02" style="stop-color:#F5F9F0"/>
	<stop  offset="0.262" style="stop-color:#D1E4B9"/>
	<stop  offset="0.4536" style="stop-color:#B1D287"/>
	<stop  offset="0.6285" style="stop-color:#95C45E"/>
	<stop  offset="0.7834" style="stop-color:#7DBB43"/>
	<stop  offset="0.9125" style="stop-color:#6DB534"/>
	<stop  offset="1" style="stop-color:#67B32E"/>
</linearGradient>
<path class="st3" d="M429.2,229.1L429.2,229.1c-1.2-3.4,0.5-7.1,3.8-8.4l179.2-69.3c3.5-1.3,7.4,0.4,8.6,3.9l3,8.4
	c1.3,3.5-0.6,7.3-4.1,8.5l-182.2,60.9C434.1,234.3,430.4,232.5,429.2,229.1z"/>
<linearGradient id="SVGID_5_" gradientUnits="userSpaceOnUse" x1="253.9183" y1="257.6292" x2="89.661" y2="354.3059" gradientTransform="matrix(1 0 0 -1 0 594.9291)">
	<stop  offset="1.880787e-03" style="stop-color:#FFFFFF"/>
	<stop  offset="6.109999e-02" style="stop-color:#F5F9F0"/>
	<stop  offset="0.2634" style="stop-color:#D1E4B9"/>
	<stop  offset="0.4546" style="stop-color:#B1D287"/>
	<stop  offset="0.6292" style="stop-color:#95C45E"/>
	<stop  offset="0.7838" style="stop-color:#7DBB43"/>
	<stop  offset="0.9126" style="stop-color:#6DB534"/>
	<stop  offset="1" style="stop-color:#67B32E"/>
</linearGradient>
<path class="st4" d="M251.8,328.6L251.8,328.6c-5.3,10.1-17.5,14.5-28,10.1L91.6,283.5c-13-5.4-17.6-21.4-9.7-32.9l16.2-23.3
	c6.9-9.9,20.5-12.5,30.5-5.7l116.1,78.5C254,306.4,257.1,318.7,251.8,328.6z"/>
<path class="st5" d="M233.5,372.2L233.5,372.2c1.2,7-3.2,13.9-10.1,15.7L69.7,429c-7.9,2.1-15.9-2.9-17.3-10.9l-3.5-20.2
	c-1.3-7.7,4.1-15,11.9-16.1l157.2-20.9C225.4,359.9,232.2,364.9,233.5,372.2z"/>
<path class="st5" d="M277,390.3L277,390.3c2.7,5,0.9,11.2-4.2,14.3L149,479.2c-5.4,3.2-12.2,1.5-15.1-3.7l-5.2-9.5
	c-2.9-5.2-0.6-11.9,4.9-14.7l129-65C267.9,383.5,274.3,385.4,277,390.3z"/>
<path class="st5" d="M324.5,398L324.5,398c2.9,3.4,2.6,8.4-0.6,11.4l-81.2,75.2c-3.4,3.1-8.7,2.9-11.8-0.6l-4.4-5.1
	c-3.1-3.5-2.6-8.8,1-11.8l85.7-70.1C316.5,394.2,321.6,394.6,324.5,398z"/>
<g>
	<g class="st6">
		<path class="st5" d="M395.5,299.9c16.2-17,36.8-25.5,61.9-25.5c10.1,0,20.1,1.9,30.1,5.6c10,3.8,16.2,5.6,18.7,5.6
			c2.6,0,4.7-0.9,6.3-2.7c1.6-1.8,2.9-4.6,3.9-8.3h6.8v56.9h-6.2c-5.9-12.4-11.8-22.1-17.9-29.2c-11.4-13.1-24.3-19.7-38.7-19.7
			c-15.7,0-27.1,6.8-34.3,20.4c-7.2,13.6-10.8,32.8-10.8,57.5c0,20.3,3.3,38.4,10,54.2c6.7,15.9,19.6,23.8,38.8,23.8
			c10.4,0,17.3-2.2,20.9-6.5c2.1-2.5,3.1-6.2,3.1-11.2v-25.7c0-7.4-2.3-12.2-6.8-14.5c-2.9-1.4-8.9-2.2-17.8-2.4v-6.2h83.4v6.2
			c-8.4,0.3-14,2-16.7,5c-2.7,3.1-4.1,8.8-4.1,17.2v31c-5.4,3.3-14.1,6.7-26.1,10c-12,3.3-25.5,5-40.4,5c-27,0-48.6-8.5-64.8-25.5
			c-15-15.9-22.6-35.9-22.6-59.9C372.1,336.8,379.9,316.4,395.5,299.9z"/>
		<path class="st5" d="M572.7,342.5c10-10.3,21.9-15.5,36-15.5c8,0,15.5,2.1,22.6,6.3c7.1,4.2,12.5,10,16.3,17.5
			c2.9,5.6,4.8,12.9,5.9,21.9c0.6,4.2,0.8,7.4,0.8,9.6h-62.1c0.6,9.7,2.1,18.2,4.8,25.3c4.8,13.4,13.1,20.1,25.1,20.1
			c5.7,0,11.1-1.8,16.2-5.3c3.1-2.1,6.9-5.7,11.5-10.8l5.6,3.4c-7.5,12.4-16.3,21-26.2,25.8c-6.4,3.1-13.8,4.6-22.1,4.6
			c-12,0-23.2-4.7-33.7-14.1c-10.5-9.4-15.7-24.5-15.7-45.1C557.8,367.3,562.8,352.8,572.7,342.5z M624.4,373.2
			c-0.2-14.3-1.3-24.4-3.3-30.1c-2.1-5.7-6.2-8.6-12.4-8.6c-6.4,0-10.7,3.3-13.1,9.9c-2.3,6.6-3.7,16.2-4,28.8H624.4z"/>
		<path class="st5" d="M669,385.1h7c3.9,18.2,10.1,31.4,18.8,39.7c8.6,8.3,18.5,12.4,29.7,12.4c10.8,0,18.5-2.8,23.1-8.5
			c4.6-5.7,6.9-11.6,6.9-17.9c0-7.3-2.4-13.2-7.2-17.8c-3.2-3-9.6-6.9-19.2-11.8l-15.5-7.8c-15.4-7.8-26.2-15.5-32.6-23.1
			s-9.5-17-9.5-28.2c0-11.9,4.2-23,12.6-33.3c8.4-10.3,21.2-15.5,38.5-15.5c8.8,0,17.3,1.3,25.5,4c8.2,2.7,12.9,4,14.1,4
			c2.6,0,4.5-0.8,5.5-2.3c1-1.5,1.8-3.6,2.5-6.1h7.2v53h-6.8c-3.2-12.3-8.8-22.9-16.8-31.7c-8-8.9-17.7-13.3-29.2-13.3
			c-8.1,0-14.4,2.2-19.1,6.7c-4.7,4.5-7,9.9-7,16.3c0,7.7,2.2,13.4,6.6,17.2c4.3,3.9,14,9.6,29,17.1l18,9c8,4,14.4,8.5,19.2,13.4
			c8.9,9.2,13.3,20.3,13.3,33.5c0,12.3-4.8,23.8-14.3,34.7c-9.5,10.9-24.8,16.3-45.9,16.3c-4.8,0-9.7-0.5-14.7-1.4
			c-4.9-0.9-9.8-2.3-14.7-4.2l-4.7-1.8c-1.1-0.3-2.1-0.6-3.2-0.8c-1-0.2-1.9-0.3-2.6-0.3c-2.5,0-4.2,0.7-5.1,2.2
			c-0.9,1.5-1.8,3.5-2.5,6.2h-7V385.1z"/>
	</g>
</g>
</svg>
