<?xml version="1.0" encoding="utf-8"?>
<!-- Generator: Adobe Illustrator 24.0.2, SVG Export Plug-In . SVG Version: 6.00 Build 0)  -->
<svg version="1.1" id="Слой_1" xmlns="http://www.w3.org/2000/svg" xmlns:xlink="http://www.w3.org/1999/xlink" x="0px" y="0px"
	 viewBox="0 0 80.4 75.3" style="enable-background:new 0 0 80.4 75.3;" xml:space="preserve">
<g>
	<path d="M44.7,27.2c8,0,15.8,0.3,23.6-0.1c11.3-0.6,13.6,6.6,11.1,14.3c-3.4,10.4-8.3,20.3-13.2,30.1c-1,1.9-4.6,3.5-7,3.6
		c-10.1,0.4-20.3,0.2-30.4,0.1c-5.6-0.1-8.7-3.1-8.8-8.6c-0.1-11.8-0.2-23.6,0.1-35.4c0.1-2.5,1.5-5.5,3.2-7.5
		c5.1-6,11.1-11.3,11.8-20.1c0.3-3.6,3.4-4.3,6.5-2.8c4.6,2.1,6.8,6,6.2,10.9C47.2,16.7,45.9,21.6,44.7,27.2z"/>
	<path d="M12,51.4c0,5.5,0,11,0,16.5c0,4.1-1.5,6.9-5.8,7.2c-3.7,0.3-6.1-2.6-6.1-7.4c-0.1-11-0.1-22,0-33c0-4.8,2.3-7.6,6.1-7.5
		C9.8,27.3,12,30,12,34.9C12.1,40.4,12,45.9,12,51.4z"/>
</g>
</svg>
